# xmcd
#
# Track frame offsets: 
#        150
#        21183
#        44412
#        62222
#        85102
#        113451
#        134506
#        154223
#        168875
#        191166
#        206077
#        229840
#
# Disc length: 3293 seconds
#
# Revision: 0
# Processed by: cddbd v1.5.2PL0 Copyright (c) Steve Scherf et al.
# Submitted via: ExactAudioCopy v0.99pb5
#
DISCID=a20cdb0c
DTITLE=Kenny Neal - Favourites
DYEAR=2010
DGENRE=Blues
TTITLE0=Let life flow
TTITLE1=The things I use to do
TTITLE2=I been missing You
TTITLE3=Blues, leave me alone
TTITLE4=Carrying the torch
TTITLE5=Caught your back door man
TTITLE6=Blues fallin' down like rain
TTITLE7=HooDoo moon
TTITLE8=Since I met you baby
TTITLE9=Starlight diamond
TTITLE10=Hurt before you heal
TTITLE11=Neal and prey
EXTD=
EXTT0=
EXTT1=
EXTT2=
EXTT3=
EXTT4=
EXTT5=
EXTT6=
EXTT7=
EXTT8=
EXTT9=
EXTT10=
EXTT11=
PLAYORDER=
